<svg xmlns="http://www.w3.org/2000/svg" viewBox="0 0 720 260" font-family="ui-sans-serif"><text x="360" y="20" text-anchor="middle" font-size="13" font-weight="600">throughput (commits / sec) — N=100</text><text x="46" y="54" text-anchor="end" font-size="9" fill="#666">108108</text><polyline points="50,193 68.24,192 86.47,189 105,188 123,181 141,188 159,164 178,163 196,163 214,152 232,144 251,135 269,144 287,141 305,142 324,144 342,145 360,142 378,146 396,142 415,143 433,141 451,143 469,141 488,144 506,144 524,143 542,142 561,141 579,149 597,144 615,143 634,141 652,143 670,147" fill="none" stroke="#2563eb" stroke-width="2"/><polyline points="50,196 68.24,197 86.47,193 105,195 123,190 141,193 159,192 178,193 196,193 214,193 232,193 251,193 269,190 287,193 305,193 324,193 342,193 360,193 378,193 396,193 415,193 433,190 451,190 469,193 488,191 506,190 524,191 542,193 561,193 579,193 597,191 615,193 634,193 652,193 670,193" fill="none" stroke="#10b981" stroke-width="2"/><polyline points="50,194 68.24,194 86.47,192 105,192 123,188 141,192 159,180 178,181 196,180 214,180 232,171 251,171 269,171 287,172 305,172 324,171 342,173 360,173 378,171 396,172 415,171 433,171 451,171 469,172 488,171 506,172 524,171 542,171 561,171 579,172 597,173 615,172 634,170 652,172 670,172" fill="none" stroke="#f59e0b" stroke-width="2"/><polyline points="50,88.36 68.24,86.24 86.47,84.48 105,74.95 123,78.93 141,73.91 159,102 178,99.68 196,101 214,127 232,59.49 251,108 269,60.76 287,61.39 305,84.04 324,60.76 342,61.39 360,109 378,51.44 396,58.21 415,57.56 433,112 451,51.44 469,64.42 488,50 506,59.49 524,104 542,62 561,55.56 579,105 597,60.13 615,109 634,52.84 652,106 670,63.83" fill="none" stroke="#ef4444" stroke-width="2"/><text x="50" y="224" text-anchor="middle" font-size="9" fill="#666">0.0.0+local</text><text x="68.24" y="224" text-anchor="middle" font-size="9" fill="#666">0.0.0+local</text><text x="86.47" y="224" text-anchor="middle" font-size="9" fill="#666">0.0.0+local</text><text x="105" y="224" text-anchor="middle" font-size="9" fill="#666">0.0.0+local</text><text x="123" y="224" text-anchor="middle" font-size="9" fill="#666">0.0.0+local</text><text x="141" y="224" text-anchor="middle" font-size="9" fill="#666">0.0.0+local</text><text x="159" y="224" text-anchor="middle" font-size="9" fill="#666">0.0.0+local</text><text x="178" y="224" text-anchor="middle" font-size="9" fill="#666">0.0.0+local</text><text x="196" y="224" text-anchor="middle" font-size="9" fill="#666">0.0.0+local</text><text x="214" y="224" text-anchor="middle" font-size="9" fill="#666">0.0.0+local</text><text x="232" y="224" text-anchor="middle" font-size="9" fill="#666">0.0.0+local</text><text x="251" y="224" text-anchor="middle" font-size="9" fill="#666">0.0.0+local</text><text x="269" y="224" text-anchor="middle" font-size="9" fill="#666">0.0.0+local</text><text x="287" y="224" text-anchor="middle" font-size="9" fill="#666">0.0.0+local</text><text x="305" y="224" text-anchor="middle" font-size="9" fill="#666">0.0.0+local</text><text x="324" y="224" text-anchor="middle" font-size="9" fill="#666">0.0.0+local</text><text x="342" y="224" text-anchor="middle" font-size="9" fill="#666">0.0.0+local</text><text x="360" y="224" text-anchor="middle" font-size="9" fill="#666">0.0.0+local</text><text x="378" y="224" text-anchor="middle" font-size="9" fill="#666">0.0.0+local</text><text x="396" y="224" text-anchor="middle" font-size="9" fill="#666">0.0.0+local</text><text x="415" y="224" text-anchor="middle" font-size="9" fill="#666">0.0.0+local</text><text x="433" y="224" text-anchor="middle" font-size="9" fill="#666">0.0.0+local</text><text x="451" y="224" text-anchor="middle" font-size="9" fill="#666">0.0.0+local</text><text x="469" y="224" text-anchor="middle" font-size="9" fill="#666">0.0.0+local</text><text x="488" y="224" text-anchor="middle" font-size="9" fill="#666">0.0.0+local</text><text x="506" y="224" text-anchor="middle" font-size="9" fill="#666">0.0.0+local</text><text x="524" y="224" text-anchor="middle" font-size="9" fill="#666">0.0.0+local</text><text x="542" y="224" text-anchor="middle" font-size="9" fill="#666">0.0.0+local</text><text x="561" y="224" text-anchor="middle" font-size="9" fill="#666">0.0.0+local</text><text x="579" y="224" text-anchor="middle" font-size="9" fill="#666">0.0.0+local</text><text x="597" y="224" text-anchor="middle" font-size="9" fill="#666">0.0.0+local</text><text x="615" y="224" text-anchor="middle" font-size="9" fill="#666">0.0.0+local</text><text x="634" y="224" text-anchor="middle" font-size="9" fill="#666">0.0.0+local</text><text x="652" y="224" text-anchor="middle" font-size="9" fill="#666">0.0.0+local</text><text x="670" y="224" text-anchor="middle" font-size="9" fill="#666">0.0.0+local</text><g><rect x="50" y="244" width="10" height="10" fill="#2563eb"/><text x="64" y="253" font-size="10" fill="#333">causl</text></g><g><rect x="200" y="244" width="10" height="10" fill="#1d4ed8"/><text x="214" y="253" font-size="10" fill="#333">causl-js</text></g><g><rect x="350" y="244" width="10" height="10" fill="#7c3aed"/><text x="364" y="253" font-size="10" fill="#333">causl-wasm</text></g><g><rect x="500" y="244" width="10" height="10" fill="#10b981"/><text x="514" y="253" font-size="10" fill="#333">jotai</text></g><g><rect x="650" y="244" width="10" height="10" fill="#f59e0b"/><text x="664" y="253" font-size="10" fill="#333">redux-toolkit</text></g><g><rect x="800" y="244" width="10" height="10" fill="#ef4444"/><text x="814" y="253" font-size="10" fill="#333">mobx</text></g></svg>