<svg xmlns="http://www.w3.org/2000/svg" viewBox="0 0 720 260" font-family="ui-sans-serif"><text x="360" y="20" text-anchor="middle" font-size="13" font-weight="600">wall time per commit (ms, median) — N=100</text><text x="46" y="54" text-anchor="end" font-size="9" fill="#666">0.11ms</text><polyline points="50,82.68 68.24,88.69 86.47,108 105,110 123,135 141,110 159,164 178,164 196,164 214,173 232,177 251,181 269,177 287,179 305,178 324,177 342,177 360,178 378,176 396,178 415,178 433,179 451,178 469,179 488,178 506,177 524,178 542,178 561,179 579,175 597,177 615,178 634,179 652,178 670,176" fill="none" stroke="#2563eb" stroke-width="2"/><polyline points="50,59.48 68.24,50 86.47,79.77 105,69.62 123,104 141,79.7 159,86.87 178,85.66 196,81.34 214,83.53 232,84.38 251,84.44 269,101 287,85.17 305,83.23 324,81.28 342,84.26 360,84.02 378,85.29 396,85.47 415,83.17 433,102 451,104 469,83.96 488,98.72 506,101 524,98.96 542,86.2 561,84.93 579,83.11 597,99.2 615,83.9 634,83.96 652,83.05 670,81.53" fill="none" stroke="#10b981" stroke-width="2"/><polyline points="50,75.27 68.24,78.18 86.47,91.79 105,91 123,112 141,87.78 159,138 178,137 196,139 214,137 232,154 251,154 269,154 287,153 305,154 324,154 342,152 360,152 378,154 396,154 415,155 433,155 451,155 469,153 488,154 506,154 524,155 542,155 561,155 579,154 597,152 615,153 634,156 652,153 670,154" fill="none" stroke="#f59e0b" stroke-width="2"/><polyline points="50,192 68.24,193 86.47,193 105,194 123,194 141,194 159,190 178,190 196,190 214,184 232,196 251,189 269,196 287,195 305,193 324,196 342,195 360,189 378,196 396,196 415,196 433,188 451,196 469,195 488,197 506,196 524,190 542,195 561,196 579,189 597,196 615,189 634,196 652,189 670,195" fill="none" stroke="#ef4444" stroke-width="2"/><text x="50" y="224" text-anchor="middle" font-size="9" fill="#666">0.0.0+local</text><text x="68.24" y="224" text-anchor="middle" font-size="9" fill="#666">0.0.0+local</text><text x="86.47" y="224" text-anchor="middle" font-size="9" fill="#666">0.0.0+local</text><text x="105" y="224" text-anchor="middle" font-size="9" fill="#666">0.0.0+local</text><text x="123" y="224" text-anchor="middle" font-size="9" fill="#666">0.0.0+local</text><text x="141" y="224" text-anchor="middle" font-size="9" fill="#666">0.0.0+local</text><text x="159" y="224" text-anchor="middle" font-size="9" fill="#666">0.0.0+local</text><text x="178" y="224" text-anchor="middle" font-size="9" fill="#666">0.0.0+local</text><text x="196" y="224" text-anchor="middle" font-size="9" fill="#666">0.0.0+local</text><text x="214" y="224" text-anchor="middle" font-size="9" fill="#666">0.0.0+local</text><text x="232" y="224" text-anchor="middle" font-size="9" fill="#666">0.0.0+local</text><text x="251" y="224" text-anchor="middle" font-size="9" fill="#666">0.0.0+local</text><text x="269" y="224" text-anchor="middle" font-size="9" fill="#666">0.0.0+local</text><text x="287" y="224" text-anchor="middle" font-size="9" fill="#666">0.0.0+local</text><text x="305" y="224" text-anchor="middle" font-size="9" fill="#666">0.0.0+local</text><text x="324" y="224" text-anchor="middle" font-size="9" fill="#666">0.0.0+local</text><text x="342" y="224" text-anchor="middle" font-size="9" fill="#666">0.0.0+local</text><text x="360" y="224" text-anchor="middle" font-size="9" fill="#666">0.0.0+local</text><text x="378" y="224" text-anchor="middle" font-size="9" fill="#666">0.0.0+local</text><text x="396" y="224" text-anchor="middle" font-size="9" fill="#666">0.0.0+local</text><text x="415" y="224" text-anchor="middle" font-size="9" fill="#666">0.0.0+local</text><text x="433" y="224" text-anchor="middle" font-size="9" fill="#666">0.0.0+local</text><text x="451" y="224" text-anchor="middle" font-size="9" fill="#666">0.0.0+local</text><text x="469" y="224" text-anchor="middle" font-size="9" fill="#666">0.0.0+local</text><text x="488" y="224" text-anchor="middle" font-size="9" fill="#666">0.0.0+local</text><text x="506" y="224" text-anchor="middle" font-size="9" fill="#666">0.0.0+local</text><text x="524" y="224" text-anchor="middle" font-size="9" fill="#666">0.0.0+local</text><text x="542" y="224" text-anchor="middle" font-size="9" fill="#666">0.0.0+local</text><text x="561" y="224" text-anchor="middle" font-size="9" fill="#666">0.0.0+local</text><text x="579" y="224" text-anchor="middle" font-size="9" fill="#666">0.0.0+local</text><text x="597" y="224" text-anchor="middle" font-size="9" fill="#666">0.0.0+local</text><text x="615" y="224" text-anchor="middle" font-size="9" fill="#666">0.0.0+local</text><text x="634" y="224" text-anchor="middle" font-size="9" fill="#666">0.0.0+local</text><text x="652" y="224" text-anchor="middle" font-size="9" fill="#666">0.0.0+local</text><text x="670" y="224" text-anchor="middle" font-size="9" fill="#666">0.0.0+local</text><g><rect x="50" y="244" width="10" height="10" fill="#2563eb"/><text x="64" y="253" font-size="10" fill="#333">causl</text></g><g><rect x="200" y="244" width="10" height="10" fill="#1d4ed8"/><text x="214" y="253" font-size="10" fill="#333">causl-js</text></g><g><rect x="350" y="244" width="10" height="10" fill="#7c3aed"/><text x="364" y="253" font-size="10" fill="#333">causl-wasm</text></g><g><rect x="500" y="244" width="10" height="10" fill="#10b981"/><text x="514" y="253" font-size="10" fill="#333">jotai</text></g><g><rect x="650" y="244" width="10" height="10" fill="#f59e0b"/><text x="664" y="253" font-size="10" fill="#333">redux-toolkit</text></g><g><rect x="800" y="244" width="10" height="10" fill="#ef4444"/><text x="814" y="253" font-size="10" fill="#333">mobx</text></g></svg>