<svg xmlns="http://www.w3.org/2000/svg" viewBox="0 0 720 260" font-family="ui-sans-serif"><text x="360" y="20" text-anchor="middle" font-size="13" font-weight="600">peak heap (MB) — N=100</text><text x="46" y="54" text-anchor="end" font-size="9" fill="#666">0.37MB</text><polyline points="50,210 68.24,208 86.47,210 105,210 123,210 141,210 159,203 178,200 196,198 214,202 232,201 251,206 269,199 287,199 305,198 324,204 342,209 360,203 378,199 396,199 415,203 433,199 451,198 469,198 488,199 506,199 524,199 542,198 561,199 579,199 597,203 615,199 634,199 652,198 670,209" fill="none" stroke="#2563eb" stroke-width="2"/><polyline points="50,210 68.24,210 86.47,209 105,208 123,207 141,208 159,202 178,200 196,202 214,205 232,200 251,201 269,200 287,200 305,201 324,200 342,201 360,201 378,200 396,201 415,201 433,201 451,201 469,201 488,201 506,200 524,200 542,201 561,201 579,201 597,200 615,200 634,201 652,201 670,201" fill="none" stroke="#10b981" stroke-width="2"/><polyline points="50,210 68.24,210 86.47,203 105,205 123,202 141,204 159,206 178,208 196,208 214,208 232,204 251,204 269,204 287,204 305,204 324,204 342,204 360,204 378,204 396,204 415,204 433,204 451,204 469,204 488,204 506,204 524,204 542,204 561,204 579,204 597,204 615,204 634,204 652,204 670,204" fill="none" stroke="#f59e0b" stroke-width="2"/><polyline points="50,120 68.24,122 86.47,50.05 105,50 123,73.92 141,74.22 159,207 178,206 196,208 214,203 232,201 251,201 269,200 287,201 305,201 324,201 342,201 360,201 378,201 396,201 415,201 433,201 451,201 469,201 488,201 506,201 524,200 542,200 561,201 579,201 597,201 615,203 634,201 652,201 670,202" fill="none" stroke="#ef4444" stroke-width="2"/><text x="50" y="224" text-anchor="middle" font-size="9" fill="#666">0.0.0+local</text><text x="68.24" y="224" text-anchor="middle" font-size="9" fill="#666">0.0.0+local</text><text x="86.47" y="224" text-anchor="middle" font-size="9" fill="#666">0.0.0+local</text><text x="105" y="224" text-anchor="middle" font-size="9" fill="#666">0.0.0+local</text><text x="123" y="224" text-anchor="middle" font-size="9" fill="#666">0.0.0+local</text><text x="141" y="224" text-anchor="middle" font-size="9" fill="#666">0.0.0+local</text><text x="159" y="224" text-anchor="middle" font-size="9" fill="#666">0.0.0+local</text><text x="178" y="224" text-anchor="middle" font-size="9" fill="#666">0.0.0+local</text><text x="196" y="224" text-anchor="middle" font-size="9" fill="#666">0.0.0+local</text><text x="214" y="224" text-anchor="middle" font-size="9" fill="#666">0.0.0+local</text><text x="232" y="224" text-anchor="middle" font-size="9" fill="#666">0.0.0+local</text><text x="251" y="224" text-anchor="middle" font-size="9" fill="#666">0.0.0+local</text><text x="269" y="224" text-anchor="middle" font-size="9" fill="#666">0.0.0+local</text><text x="287" y="224" text-anchor="middle" font-size="9" fill="#666">0.0.0+local</text><text x="305" y="224" text-anchor="middle" font-size="9" fill="#666">0.0.0+local</text><text x="324" y="224" text-anchor="middle" font-size="9" fill="#666">0.0.0+local</text><text x="342" y="224" text-anchor="middle" font-size="9" fill="#666">0.0.0+local</text><text x="360" y="224" text-anchor="middle" font-size="9" fill="#666">0.0.0+local</text><text x="378" y="224" text-anchor="middle" font-size="9" fill="#666">0.0.0+local</text><text x="396" y="224" text-anchor="middle" font-size="9" fill="#666">0.0.0+local</text><text x="415" y="224" text-anchor="middle" font-size="9" fill="#666">0.0.0+local</text><text x="433" y="224" text-anchor="middle" font-size="9" fill="#666">0.0.0+local</text><text x="451" y="224" text-anchor="middle" font-size="9" fill="#666">0.0.0+local</text><text x="469" y="224" text-anchor="middle" font-size="9" fill="#666">0.0.0+local</text><text x="488" y="224" text-anchor="middle" font-size="9" fill="#666">0.0.0+local</text><text x="506" y="224" text-anchor="middle" font-size="9" fill="#666">0.0.0+local</text><text x="524" y="224" text-anchor="middle" font-size="9" fill="#666">0.0.0+local</text><text x="542" y="224" text-anchor="middle" font-size="9" fill="#666">0.0.0+local</text><text x="561" y="224" text-anchor="middle" font-size="9" fill="#666">0.0.0+local</text><text x="579" y="224" text-anchor="middle" font-size="9" fill="#666">0.0.0+local</text><text x="597" y="224" text-anchor="middle" font-size="9" fill="#666">0.0.0+local</text><text x="615" y="224" text-anchor="middle" font-size="9" fill="#666">0.0.0+local</text><text x="634" y="224" text-anchor="middle" font-size="9" fill="#666">0.0.0+local</text><text x="652" y="224" text-anchor="middle" font-size="9" fill="#666">0.0.0+local</text><text x="670" y="224" text-anchor="middle" font-size="9" fill="#666">0.0.0+local</text><g><rect x="50" y="244" width="10" height="10" fill="#2563eb"/><text x="64" y="253" font-size="10" fill="#333">causl</text></g><g><rect x="200" y="244" width="10" height="10" fill="#1d4ed8"/><text x="214" y="253" font-size="10" fill="#333">causl-js</text></g><g><rect x="350" y="244" width="10" height="10" fill="#7c3aed"/><text x="364" y="253" font-size="10" fill="#333">causl-wasm</text></g><g><rect x="500" y="244" width="10" height="10" fill="#10b981"/><text x="514" y="253" font-size="10" fill="#333">jotai</text></g><g><rect x="650" y="244" width="10" height="10" fill="#f59e0b"/><text x="664" y="253" font-size="10" fill="#333">redux-toolkit</text></g><g><rect x="800" y="244" width="10" height="10" fill="#ef4444"/><text x="814" y="253" font-size="10" fill="#333">mobx</text></g></svg>