<svg xmlns="http://www.w3.org/2000/svg" viewBox="0 0 880 320" font-family="ui-sans-serif"><text x="440" y="22" text-anchor="middle" font-size="13" font-weight="600">wall time per commit (ms, median)</text><g><g><rect x="64" y="230" width="15.62" height="7.95" fill="#2563eb"/><text x="71.81" y="227" text-anchor="middle" font-size="9" fill="#444">5.11ms</text></g><g><rect x="79.62" y="238" width="15.62" height="0" fill="#1d4ed8"/><text x="87.43" y="235" text-anchor="middle" font-size="9" fill="#444">0ms</text></g><g><rect x="95.24" y="238" width="15.62" height="0" fill="#7c3aed"/><text x="103" y="235" text-anchor="middle" font-size="9" fill="#444">0ms</text></g><g><rect x="111" y="238" width="15.62" height="0" fill="#10b981"/><text x="119" y="235" text-anchor="middle" font-size="9" fill="#444">0ms</text></g><g><rect x="126" y="238" width="15.62" height="0" fill="#f59e0b"/><text x="134" y="235" text-anchor="middle" font-size="9" fill="#444">0ms</text></g><g><rect x="142" y="238" width="15.62" height="0" fill="#ef4444"/><text x="150" y="235" text-anchor="middle" font-size="9" fill="#444">0ms</text></g><text x="111" y="252" text-anchor="middle" font-size="11" fill="#222" font-weight="500">linear-chain</text></g><g><g><rect x="174" y="238" width="15.62" height="0.01" fill="#2563eb"/><text x="182" y="235" text-anchor="middle" font-size="9" fill="#444">0.01ms</text></g><g><rect x="189" y="238" width="15.62" height="0" fill="#1d4ed8"/><text x="197" y="235" text-anchor="middle" font-size="9" fill="#444">0ms</text></g><g><rect x="205" y="238" width="15.62" height="0" fill="#7c3aed"/><text x="213" y="235" text-anchor="middle" font-size="9" fill="#444">0ms</text></g><g><rect x="221" y="238" width="15.62" height="0.02" fill="#10b981"/><text x="228" y="235" text-anchor="middle" font-size="9" fill="#444">0.01ms</text></g><g><rect x="236" y="238" width="15.62" height="0.01" fill="#f59e0b"/><text x="244" y="235" text-anchor="middle" font-size="9" fill="#444">0.01ms</text></g><g><rect x="252" y="238" width="15.62" height="0.01" fill="#ef4444"/><text x="260" y="235" text-anchor="middle" font-size="9" fill="#444">0.01ms</text></g><text x="221" y="252" text-anchor="middle" font-size="11" fill="#222" font-weight="500">diamond</text></g><g><g><rect x="283" y="238" width="15.62" height="0.01" fill="#2563eb"/><text x="291" y="235" text-anchor="middle" font-size="9" fill="#444">0.01ms</text></g><g><rect x="299" y="238" width="15.62" height="0" fill="#1d4ed8"/><text x="307" y="235" text-anchor="middle" font-size="9" fill="#444">0ms</text></g><g><rect x="315" y="238" width="15.62" height="0" fill="#7c3aed"/><text x="322" y="235" text-anchor="middle" font-size="9" fill="#444">0ms</text></g><g><rect x="330" y="238" width="15.62" height="0.02" fill="#10b981"/><text x="338" y="235" text-anchor="middle" font-size="9" fill="#444">0.01ms</text></g><g><rect x="346" y="238" width="15.62" height="0.02" fill="#f59e0b"/><text x="354" y="235" text-anchor="middle" font-size="9" fill="#444">0.01ms</text></g><g><rect x="362" y="238" width="15.62" height="0.01" fill="#ef4444"/><text x="369" y="235" text-anchor="middle" font-size="9" fill="#444">0.01ms</text></g><text x="330" y="252" text-anchor="middle" font-size="11" fill="#222" font-weight="500">dynamic-dep-flip</text></g><g><g><rect x="393" y="238" width="15.62" height="0.13" fill="#2563eb"/><text x="401" y="235" text-anchor="middle" font-size="9" fill="#444">0.08ms</text></g><g><rect x="409" y="238" width="15.62" height="0" fill="#1d4ed8"/><text x="417" y="235" text-anchor="middle" font-size="9" fill="#444">0ms</text></g><g><rect x="424" y="238" width="15.62" height="0" fill="#7c3aed"/><text x="432" y="235" text-anchor="middle" font-size="9" fill="#444">0ms</text></g><g><rect x="440" y="238" width="15.62" height="0.16" fill="#10b981"/><text x="448" y="235" text-anchor="middle" font-size="9" fill="#444">0.1ms</text></g><g><rect x="456" y="186" width="15.62" height="51.91" fill="#f59e0b"/><text x="463" y="183" text-anchor="middle" font-size="9" fill="#444">33.37ms</text></g><g><rect x="471" y="237" width="15.62" height="1.49" fill="#ef4444"/><text x="479" y="234" text-anchor="middle" font-size="9" fill="#444">0.95ms</text></g><text x="440" y="252" text-anchor="middle" font-size="11" fill="#222" font-weight="500">scrolling-viewport</text></g><g><g><rect x="503" y="238" width="15.62" height="0.01" fill="#2563eb"/><text x="511" y="235" text-anchor="middle" font-size="9" fill="#444">0ms</text></g><g><rect x="518" y="238" width="15.62" height="0" fill="#1d4ed8"/><text x="526" y="235" text-anchor="middle" font-size="9" fill="#444">0ms</text></g><g><rect x="534" y="238" width="15.62" height="0" fill="#7c3aed"/><text x="542" y="235" text-anchor="middle" font-size="9" fill="#444">0ms</text></g><g><rect x="550" y="238" width="15.62" height="0.01" fill="#10b981"/><text x="558" y="235" text-anchor="middle" font-size="9" fill="#444">0ms</text></g><g><rect x="565" y="238" width="15.62" height="0.01" fill="#f59e0b"/><text x="573" y="235" text-anchor="middle" font-size="9" fill="#444">0.01ms</text></g><g><rect x="581" y="238" width="15.62" height="0" fill="#ef4444"/><text x="589" y="235" text-anchor="middle" font-size="9" fill="#444">0ms</text></g><text x="550" y="252" text-anchor="middle" font-size="11" fill="#222" font-weight="500">async-race</text></g><g><g><rect x="613" y="235" width="15.62" height="2.51" fill="#2563eb"/><text x="620" y="232" text-anchor="middle" font-size="9" fill="#444">1.61ms</text></g><g><rect x="628" y="238" width="15.62" height="0" fill="#1d4ed8"/><text x="636" y="235" text-anchor="middle" font-size="9" fill="#444">0ms</text></g><g><rect x="644" y="238" width="15.62" height="0" fill="#7c3aed"/><text x="652" y="235" text-anchor="middle" font-size="9" fill="#444">0ms</text></g><g><rect x="659" y="231" width="15.62" height="6.84" fill="#10b981"/><text x="667" y="228" text-anchor="middle" font-size="9" fill="#444">4.4ms</text></g><g><rect x="675" y="232" width="15.62" height="5.63" fill="#f59e0b"/><text x="683" y="229" text-anchor="middle" font-size="9" fill="#444">3.62ms</text></g><g><rect x="691" y="231" width="15.62" height="6.83" fill="#ef4444"/><text x="698" y="228" text-anchor="middle" font-size="9" fill="#444">4.39ms</text></g><text x="659" y="252" text-anchor="middle" font-size="11" fill="#222" font-weight="500">batch-commit</text></g><g><g><rect x="722" y="236" width="15.62" height="2.18" fill="#2563eb"/><text x="730" y="233" text-anchor="middle" font-size="9" fill="#444">1.4ms</text></g><g><rect x="738" y="238" width="15.62" height="0" fill="#1d4ed8"/><text x="746" y="235" text-anchor="middle" font-size="9" fill="#444">0ms</text></g><g><rect x="754" y="238" width="15.62" height="0" fill="#7c3aed"/><text x="761" y="235" text-anchor="middle" font-size="9" fill="#444">0ms</text></g><g><rect x="769" y="231" width="15.62" height="7.09" fill="#10b981"/><text x="777" y="228" text-anchor="middle" font-size="9" fill="#444">4.56ms</text></g><g><rect x="785" y="232" width="15.62" height="6.17" fill="#f59e0b"/><text x="793" y="229" text-anchor="middle" font-size="9" fill="#444">3.96ms</text></g><g><rect x="800" y="238" width="15.62" height="0.45" fill="#ef4444"/><text x="808" y="235" text-anchor="middle" font-size="9" fill="#444">0.29ms</text></g><text x="769" y="252" text-anchor="middle" font-size="11" fill="#222" font-weight="500">equality-cutoff</text></g><g><rect x="56" y="298" width="10" height="10" fill="#2563eb"/><text x="70" y="307" font-size="10" fill="#333">causl</text></g><g><rect x="206" y="298" width="10" height="10" fill="#1d4ed8"/><text x="220" y="307" font-size="10" fill="#333">causl-js</text></g><g><rect x="356" y="298" width="10" height="10" fill="#7c3aed"/><text x="370" y="307" font-size="10" fill="#333">causl-wasm</text></g><g><rect x="506" y="298" width="10" height="10" fill="#10b981"/><text x="520" y="307" font-size="10" fill="#333">jotai</text></g><g><rect x="656" y="298" width="10" height="10" fill="#f59e0b"/><text x="670" y="307" font-size="10" fill="#333">redux-toolkit</text></g><g><rect x="806" y="298" width="10" height="10" fill="#ef4444"/><text x="820" y="307" font-size="10" fill="#333">mobx</text></g></svg>