<?xml version="1.0" encoding="UTF-8"?>
<svg xmlns="http://www.w3.org/2000/svg" width="720" height="420" viewBox="0 0 720 420" font-family="system-ui, sans-serif"><rect width="720" height="420" fill="#fff"/><text x="360.0" y="22" text-anchor="middle" font-size="14" font-weight="600" fill="#222">causl crossover curve (linear-chain, log-log)</text><line x1="70" y1="360.0" x2="690.0" y2="360.0" stroke="#eee" stroke-width="1" /><text x="62.0" y="364.0" font-size="11" text-anchor="end" fill="#444">0.045</text><line x1="70" y1="296.0" x2="690.0" y2="296.0" stroke="#eee" stroke-width="1" /><text x="62.0" y="300.0" font-size="11" text-anchor="end" fill="#444">0.201</text><line x1="70" y1="232.0" x2="690.0" y2="232.0" stroke="#eee" stroke-width="1" /><text x="62.0" y="236.0" font-size="11" text-anchor="end" fill="#444">0.894</text><line x1="70" y1="168.0" x2="690.0" y2="168.0" stroke="#eee" stroke-width="1" /><text x="62.0" y="172.0" font-size="11" text-anchor="end" fill="#444">4.0</text><line x1="70" y1="104.0" x2="690.0" y2="104.0" stroke="#eee" stroke-width="1" /><text x="62.0" y="108.0" font-size="11" text-anchor="end" fill="#444">17.7</text><line x1="70" y1="40.0" x2="690.0" y2="40.0" stroke="#eee" stroke-width="1" /><text x="62.0" y="44.0" font-size="11" text-anchor="end" fill="#444">79.0</text><line x1="70" y1="40" x2="70" y2="360.0" stroke="#888" stroke-width="1"/><line x1="70" y1="360.0" x2="690.0" y2="360.0" stroke="#888" stroke-width="1"/><path d="M70.0,360.0 L214.5,306.4 L276.7,280.3 L421.1,205.0 L483.3,173.4 L627.8,82.8 L690.0,40.0" fill="none" stroke="#1f6feb" stroke-width="2"/><circle cx="70.0" cy="360.0" r="4" fill="#1f6feb" /><circle cx="214.5" cy="306.4" r="4" fill="#1f6feb" /><circle cx="276.7" cy="280.3" r="4" fill="#1f6feb" /><circle cx="421.1" cy="205.0" r="4" fill="#1f6feb" /><circle cx="483.3" cy="173.4" r="4" fill="#1f6feb" /><circle cx="627.8" cy="82.8" r="4" fill="#1f6feb" /><circle cx="690.0" cy="40.0" r="4" fill="#1f6feb" /><text x="70.0" y="378.0" font-size="11" text-anchor="middle" fill="#444">100</text><text x="214.5" y="378.0" font-size="11" text-anchor="middle" fill="#444">500</text><text x="276.7" y="378.0" font-size="11" text-anchor="middle" fill="#444">1,000</text><text x="421.1" y="378.0" font-size="11" text-anchor="middle" fill="#444">5,000</text><text x="483.3" y="378.0" font-size="11" text-anchor="middle" fill="#444">10,000</text><text x="627.8" y="378.0" font-size="11" text-anchor="middle" fill="#444">50,000</text><text x="690.0" y="378.0" font-size="11" text-anchor="middle" fill="#444">100,000</text><text x="360.0" y="408.0" text-anchor="middle" font-size="12" fill="#222">node count (log)</text><text x="18" y="210.0" font-size="12" fill="#222" transform="rotate(-90 18 210.0)" text-anchor="middle">median commit (ms, log)</text></svg>
