<svg xmlns="http://www.w3.org/2000/svg" viewBox="0 0 720 260" font-family="ui-sans-serif"><text x="360" y="20" text-anchor="middle" font-size="13" font-weight="600">peak heap (MB) — N=1000</text><text x="46" y="54" text-anchor="end" font-size="9" fill="#666">0.47MB</text><polyline points="50,207 68.24,208 86.47,208 105,209 123,204 141,209 159,210 178,210 196,210 214,210 232,210 251,210 269,209 287,209 305,209 324,209 342,209 360,209 378,209 396,209 415,209 433,209 451,209 469,209 488,208 506,209 524,209 542,209 561,209 579,209 597,209 615,208 634,210 652,208 670,209" fill="none" stroke="#2563eb" stroke-width="2"/><polyline points="50,208 68.24,208 86.47,201 105,201 123,191 141,200 159,200 178,200 196,199 214,205 232,196 251,194 269,196 287,194 305,194 324,194 342,191 360,194 378,194 396,196 415,194 433,196 451,196 469,194 488,194 506,196 524,194 542,194 561,194 579,194 597,196 615,194 634,196 652,194 670,194" fill="none" stroke="#10b981" stroke-width="2"/><polyline points="50,210 68.24,210 86.47,209 105,210 123,202 141,209 159,210 178,210 196,210 214,210 232,209 251,209 269,209 287,209 305,209 324,209 342,210 360,210 378,210 396,210 415,209 433,210 451,210 469,210 488,210 506,210 524,210 542,209 561,210 579,209 597,209 615,210 634,208 652,209 670,209" fill="none" stroke="#f59e0b" stroke-width="2"/><polyline points="50,199 68.24,199 86.47,50 105,50.34 123,121 141,58.09 159,209 178,210 196,210 214,209 232,198 251,198 269,208 287,207 305,198 324,203 342,208 360,199 378,198 396,198 415,207 433,198 451,198 469,197 488,198 506,198 524,198 542,204 561,203 579,198 597,203 615,199 634,198 652,197 670,207" fill="none" stroke="#ef4444" stroke-width="2"/><text x="50" y="224" text-anchor="middle" font-size="9" fill="#666">0.0.0+local</text><text x="68.24" y="224" text-anchor="middle" font-size="9" fill="#666">0.0.0+local</text><text x="86.47" y="224" text-anchor="middle" font-size="9" fill="#666">0.0.0+local</text><text x="105" y="224" text-anchor="middle" font-size="9" fill="#666">0.0.0+local</text><text x="123" y="224" text-anchor="middle" font-size="9" fill="#666">0.0.0+local</text><text x="141" y="224" text-anchor="middle" font-size="9" fill="#666">0.0.0+local</text><text x="159" y="224" text-anchor="middle" font-size="9" fill="#666">0.0.0+local</text><text x="178" y="224" text-anchor="middle" font-size="9" fill="#666">0.0.0+local</text><text x="196" y="224" text-anchor="middle" font-size="9" fill="#666">0.0.0+local</text><text x="214" y="224" text-anchor="middle" font-size="9" fill="#666">0.0.0+local</text><text x="232" y="224" text-anchor="middle" font-size="9" fill="#666">0.0.0+local</text><text x="251" y="224" text-anchor="middle" font-size="9" fill="#666">0.0.0+local</text><text x="269" y="224" text-anchor="middle" font-size="9" fill="#666">0.0.0+local</text><text x="287" y="224" text-anchor="middle" font-size="9" fill="#666">0.0.0+local</text><text x="305" y="224" text-anchor="middle" font-size="9" fill="#666">0.0.0+local</text><text x="324" y="224" text-anchor="middle" font-size="9" fill="#666">0.0.0+local</text><text x="342" y="224" text-anchor="middle" font-size="9" fill="#666">0.0.0+local</text><text x="360" y="224" text-anchor="middle" font-size="9" fill="#666">0.0.0+local</text><text x="378" y="224" text-anchor="middle" font-size="9" fill="#666">0.0.0+local</text><text x="396" y="224" text-anchor="middle" font-size="9" fill="#666">0.0.0+local</text><text x="415" y="224" text-anchor="middle" font-size="9" fill="#666">0.0.0+local</text><text x="433" y="224" text-anchor="middle" font-size="9" fill="#666">0.0.0+local</text><text x="451" y="224" text-anchor="middle" font-size="9" fill="#666">0.0.0+local</text><text x="469" y="224" text-anchor="middle" font-size="9" fill="#666">0.0.0+local</text><text x="488" y="224" text-anchor="middle" font-size="9" fill="#666">0.0.0+local</text><text x="506" y="224" text-anchor="middle" font-size="9" fill="#666">0.0.0+local</text><text x="524" y="224" text-anchor="middle" font-size="9" fill="#666">0.0.0+local</text><text x="542" y="224" text-anchor="middle" font-size="9" fill="#666">0.0.0+local</text><text x="561" y="224" text-anchor="middle" font-size="9" fill="#666">0.0.0+local</text><text x="579" y="224" text-anchor="middle" font-size="9" fill="#666">0.0.0+local</text><text x="597" y="224" text-anchor="middle" font-size="9" fill="#666">0.0.0+local</text><text x="615" y="224" text-anchor="middle" font-size="9" fill="#666">0.0.0+local</text><text x="634" y="224" text-anchor="middle" font-size="9" fill="#666">0.0.0+local</text><text x="652" y="224" text-anchor="middle" font-size="9" fill="#666">0.0.0+local</text><text x="670" y="224" text-anchor="middle" font-size="9" fill="#666">0.0.0+local</text><g><rect x="50" y="244" width="10" height="10" fill="#2563eb"/><text x="64" y="253" font-size="10" fill="#333">causl</text></g><g><rect x="200" y="244" width="10" height="10" fill="#1d4ed8"/><text x="214" y="253" font-size="10" fill="#333">causl-js</text></g><g><rect x="350" y="244" width="10" height="10" fill="#7c3aed"/><text x="364" y="253" font-size="10" fill="#333">causl-wasm</text></g><g><rect x="500" y="244" width="10" height="10" fill="#10b981"/><text x="514" y="253" font-size="10" fill="#333">jotai</text></g><g><rect x="650" y="244" width="10" height="10" fill="#f59e0b"/><text x="664" y="253" font-size="10" fill="#333">redux-toolkit</text></g><g><rect x="800" y="244" width="10" height="10" fill="#ef4444"/><text x="814" y="253" font-size="10" fill="#333">mobx</text></g></svg>