<svg xmlns="http://www.w3.org/2000/svg" viewBox="0 0 720 260" font-family="ui-sans-serif"><text x="360" y="20" text-anchor="middle" font-size="13" font-weight="600">throughput (commits / sec) — N=1000</text><text x="46" y="54" text-anchor="end" font-size="9" fill="#666">94859</text><polyline points="50,208 68.24,208 86.47,207 105,207 123,206 141,207 159,190 178,187 196,189 214,189 232,189 251,189 269,188 287,189 305,190 324,189 342,189 360,189 378,188 396,189 415,189 433,189 451,189 469,190 488,189 506,189 524,189 542,189 561,189 579,189 597,189 615,189 634,189 652,189 670,189" fill="none" stroke="#2563eb" stroke-width="2"/><polyline points="50,208 68.24,208 86.47,208 105,208 123,207 141,208 159,191 178,191 196,193 214,191 232,59.51 251,115 269,62.25 287,51.87 305,61.17 324,60.63 342,56.66 360,60.61 378,64.38 396,50 415,54.3 433,56.07 451,52.48 469,63.85 488,55.48 506,61.17 524,56.66 542,56.07 561,51.25 579,57.25 597,63.33 615,62.26 634,54.3 652,55.5 670,68.46" fill="none" stroke="#10b981" stroke-width="2"/><polyline points="50,207 68.24,207 86.47,207 105,207 123,207 141,207 159,206 178,205 196,205 214,205 232,205 251,205 269,205 287,205 305,205 324,205 342,205 360,205 378,205 396,205 415,205 433,205 451,205 469,205 488,205 506,205 524,205 542,205 561,205 579,205 597,205 615,205 634,205 652,205 670,205" fill="none" stroke="#f59e0b" stroke-width="2"/><polyline points="50,193 68.24,190 86.47,192 105,193 123,192 141,193 159,196 178,195 196,195 214,196 232,192 251,188 269,191 287,191 305,192 324,190 342,192 360,190 378,190 396,191 415,191 433,187 451,192 469,192 488,190 506,192 524,188 542,191 561,192 579,188 597,192 615,189 634,191 652,189 670,193" fill="none" stroke="#ef4444" stroke-width="2"/><text x="50" y="224" text-anchor="middle" font-size="9" fill="#666">0.0.0+local</text><text x="68.24" y="224" text-anchor="middle" font-size="9" fill="#666">0.0.0+local</text><text x="86.47" y="224" text-anchor="middle" font-size="9" fill="#666">0.0.0+local</text><text x="105" y="224" text-anchor="middle" font-size="9" fill="#666">0.0.0+local</text><text x="123" y="224" text-anchor="middle" font-size="9" fill="#666">0.0.0+local</text><text x="141" y="224" text-anchor="middle" font-size="9" fill="#666">0.0.0+local</text><text x="159" y="224" text-anchor="middle" font-size="9" fill="#666">0.0.0+local</text><text x="178" y="224" text-anchor="middle" font-size="9" fill="#666">0.0.0+local</text><text x="196" y="224" text-anchor="middle" font-size="9" fill="#666">0.0.0+local</text><text x="214" y="224" text-anchor="middle" font-size="9" fill="#666">0.0.0+local</text><text x="232" y="224" text-anchor="middle" font-size="9" fill="#666">0.0.0+local</text><text x="251" y="224" text-anchor="middle" font-size="9" fill="#666">0.0.0+local</text><text x="269" y="224" text-anchor="middle" font-size="9" fill="#666">0.0.0+local</text><text x="287" y="224" text-anchor="middle" font-size="9" fill="#666">0.0.0+local</text><text x="305" y="224" text-anchor="middle" font-size="9" fill="#666">0.0.0+local</text><text x="324" y="224" text-anchor="middle" font-size="9" fill="#666">0.0.0+local</text><text x="342" y="224" text-anchor="middle" font-size="9" fill="#666">0.0.0+local</text><text x="360" y="224" text-anchor="middle" font-size="9" fill="#666">0.0.0+local</text><text x="378" y="224" text-anchor="middle" font-size="9" fill="#666">0.0.0+local</text><text x="396" y="224" text-anchor="middle" font-size="9" fill="#666">0.0.0+local</text><text x="415" y="224" text-anchor="middle" font-size="9" fill="#666">0.0.0+local</text><text x="433" y="224" text-anchor="middle" font-size="9" fill="#666">0.0.0+local</text><text x="451" y="224" text-anchor="middle" font-size="9" fill="#666">0.0.0+local</text><text x="469" y="224" text-anchor="middle" font-size="9" fill="#666">0.0.0+local</text><text x="488" y="224" text-anchor="middle" font-size="9" fill="#666">0.0.0+local</text><text x="506" y="224" text-anchor="middle" font-size="9" fill="#666">0.0.0+local</text><text x="524" y="224" text-anchor="middle" font-size="9" fill="#666">0.0.0+local</text><text x="542" y="224" text-anchor="middle" font-size="9" fill="#666">0.0.0+local</text><text x="561" y="224" text-anchor="middle" font-size="9" fill="#666">0.0.0+local</text><text x="579" y="224" text-anchor="middle" font-size="9" fill="#666">0.0.0+local</text><text x="597" y="224" text-anchor="middle" font-size="9" fill="#666">0.0.0+local</text><text x="615" y="224" text-anchor="middle" font-size="9" fill="#666">0.0.0+local</text><text x="634" y="224" text-anchor="middle" font-size="9" fill="#666">0.0.0+local</text><text x="652" y="224" text-anchor="middle" font-size="9" fill="#666">0.0.0+local</text><text x="670" y="224" text-anchor="middle" font-size="9" fill="#666">0.0.0+local</text><g><rect x="50" y="244" width="10" height="10" fill="#2563eb"/><text x="64" y="253" font-size="10" fill="#333">causl</text></g><g><rect x="200" y="244" width="10" height="10" fill="#1d4ed8"/><text x="214" y="253" font-size="10" fill="#333">causl-js</text></g><g><rect x="350" y="244" width="10" height="10" fill="#7c3aed"/><text x="364" y="253" font-size="10" fill="#333">causl-wasm</text></g><g><rect x="500" y="244" width="10" height="10" fill="#10b981"/><text x="514" y="253" font-size="10" fill="#333">jotai</text></g><g><rect x="650" y="244" width="10" height="10" fill="#f59e0b"/><text x="664" y="253" font-size="10" fill="#333">redux-toolkit</text></g><g><rect x="800" y="244" width="10" height="10" fill="#ef4444"/><text x="814" y="253" font-size="10" fill="#333">mobx</text></g></svg>